<svg width="329" height="65" viewBox="0 0 329 65" fill="none" xmlns="http://www.w3.org/2000/svg">
<rect x="2.46441" y="17.8181" width="75.4111" height="43.6201" rx="21.8101" stroke="#9399A5" stroke-width="4.92883"/>
<circle cx="56.0655" cy="39.6281" r="21.8101" fill="#131932" stroke="white" stroke-width="4.92883"/>
<path d="M153.96 62.8049C149.296 62.8049 145.201 61.838 141.674 59.9042C138.148 57.9135 135.389 55.2118 133.399 51.7992C131.408 48.3297 130.413 44.3767 130.413 39.9403C130.413 35.5039 131.351 31.5794 133.228 28.1667C135.162 24.7541 137.778 22.0809 141.077 20.1471C144.433 18.1564 148.187 17.161 152.339 17.161C156.548 17.161 160.273 18.1279 163.515 20.0617C166.814 21.9387 169.402 24.6119 171.279 28.0814C173.156 31.494 174.094 35.447 174.094 39.9403C174.094 40.2247 174.066 40.5375 174.009 40.8788C174.009 41.1632 174.009 41.476 174.009 41.8172H135.02V37.2955H170.767L168.378 39.0871C168.378 35.8451 167.667 32.9729 166.245 30.4703C164.88 27.9108 163.003 25.9201 160.614 24.4982C158.226 23.0762 155.467 22.3653 152.339 22.3653C149.267 22.3653 146.509 23.0762 144.063 24.4982C141.617 25.9201 139.712 27.9108 138.347 30.4703C136.982 33.0297 136.299 35.9589 136.299 39.2578V40.1962C136.299 43.6089 137.039 46.6234 138.518 49.2397C140.053 51.7992 142.158 53.8183 144.831 55.2971C147.561 56.719 150.661 57.43 154.13 57.43C156.86 57.43 159.391 56.9466 161.723 55.9796C162.99 55.4668 164.161 54.8101 165.236 54.0093C166.763 52.872 168.988 52.8328 170.237 54.2694L171.279 55.4678C169.288 57.8566 166.786 59.6767 163.771 60.928C160.813 62.1793 157.543 62.8049 153.96 62.8049Z" fill="white"/>
<path d="M260.35 64.3879C255.623 64.3879 251.414 63.379 247.724 61.3611C244.034 59.2856 241.123 56.4605 238.99 52.886C236.857 49.3115 235.79 45.2469 235.79 40.6923C235.79 36.08 236.857 32.0154 238.99 28.4985C241.123 24.924 244.034 22.1278 247.724 20.1099C251.414 18.0921 255.623 17.0831 260.35 17.0831C265.136 17.0831 269.373 18.0921 273.063 20.1099C276.81 22.1278 279.722 24.8952 281.797 28.4121C283.931 31.9289 284.997 36.0223 284.997 40.6923C284.997 45.2469 283.931 49.3115 281.797 52.886C279.722 56.4605 276.81 59.2856 273.063 61.3611C269.373 63.379 265.136 64.3879 260.35 64.3879ZM260.35 55.1345C263.002 55.1345 265.366 54.558 267.442 53.4049C269.517 52.2518 271.132 50.5799 272.285 48.389C273.495 46.1982 274.101 43.6326 274.101 40.6923C274.101 37.6943 273.495 35.1287 272.285 32.9955C271.132 30.8047 269.517 29.1327 267.442 27.9797C265.366 26.8266 263.031 26.2501 260.437 26.2501C257.785 26.2501 255.421 26.8266 253.345 27.9797C251.328 29.1327 249.713 30.8047 248.503 32.9955C247.292 35.1287 246.686 37.6943 246.686 40.6923C246.686 43.6326 247.292 46.1982 248.503 48.389C249.713 50.5799 251.328 52.2518 253.345 53.4049C255.421 54.558 257.756 55.1345 260.35 55.1345Z" fill="white"/>
<path d="M126.262 62.3783C126.263 62.3176 126.263 62.2568 126.263 62.1959C126.263 57.7074 127.102 33.4269 123.554 27.4124C121.8 24.0034 119.35 21.333 116.203 19.4013C113.108 17.4695 109.548 16.5037 105.525 16.5037C101.552 16.5037 98.0185 17.4695 94.9232 19.4013C91.828 21.333 89.3776 24.0034 87.572 27.4124C83.1273 35.8046 84.8637 57.7074 84.8637 62.1959C84.8637 62.2568 84.8638 62.3176 84.8642 62.3783H90.4357C90.4353 62.3176 90.4351 62.2568 90.4351 62.1959C90.4351 58.6733 89.4789 34.6857 92.447 30.0543C93.7883 27.4408 95.5939 25.4238 97.8637 24.0034C100.134 22.5262 102.713 21.7876 105.602 21.7876C108.491 21.7876 111.07 22.5262 113.34 24.0034C115.61 25.4238 117.65 27.3276 118.679 30.0543C120.691 35.385 120.691 58.6733 120.691 62.1959C120.691 62.2568 120.691 62.3176 120.691 62.3783H126.262Z" fill="white"/>
<path d="M207.686 63.9014C203.818 63.9014 200.377 63.0483 197.363 61.342C194.348 59.6357 191.959 57.0762 190.196 53.6636C188.49 50.1941 187.637 45.8145 187.637 40.525C187.637 35.1785 188.518 30.799 190.281 27.3863C192.102 23.9737 194.519 21.4427 197.533 19.7932C200.605 18.0869 203.989 17.2338 207.686 17.2338C212.179 17.2338 216.132 18.2007 219.545 20.1345C223.014 22.0683 225.744 24.77 227.735 28.2395C229.783 31.709 230.806 35.8041 230.806 40.525C230.806 45.2458 229.783 49.3409 227.735 52.8104C225.744 56.2799 223.014 59.01 219.545 61.0007C216.132 62.9345 212.179 63.9014 207.686 63.9014ZM182.432 41.7655V0H186.575C190.177 0 193.097 2.91976 193.097 6.52147V28.3248L192.244 40.4396L192.585 52.5545L207.686 63.9014C191.521 64.1434 182.432 53.6636 182.432 41.7655ZM206.491 54.7727C209.051 54.7727 211.326 54.2039 213.317 53.0664C215.364 51.9288 216.985 50.2794 218.18 48.1181C219.374 45.9567 219.971 43.4257 219.971 40.525C219.971 37.5673 219.374 35.0363 218.18 32.9319C216.985 30.7705 215.364 29.1211 213.317 27.9835C211.326 26.846 209.051 26.2772 206.491 26.2772C203.932 26.2772 201.628 26.846 199.581 27.9835C197.533 29.1211 195.912 30.7705 194.718 32.9319C193.523 35.0363 192.926 37.5673 192.926 40.525C192.926 43.4257 193.523 45.9567 194.718 48.1181C195.912 50.2794 197.533 51.9288 199.581 53.0664C201.628 54.2039 203.932 54.7727 206.491 54.7727Z" fill="white"/>
<path d="M281.735 61.2231L301.784 35.1165L301.614 40.8327L282.503 15.6646H290.101C292.783 15.6646 295.307 16.9294 296.913 19.0774L307.756 33.5808H303.235L316.715 15.6646H328.232L308.951 40.8327L309.036 35.1165L329 61.2231H316.97L302.893 42.1977L307.33 42.7949L295.72 58.2743C294.328 60.1306 292.143 61.2231 289.823 61.2231H281.735Z" fill="white"/>
</svg>
