<svg width="329" height="65" viewBox="0 0 329 65" fill="none" xmlns="http://www.w3.org/2000/svg">
<rect x="2.46442" y="17.8181" width="75.4112" height="43.6202" rx="21.8101" fill="#0B74F2" stroke="#1153A1" stroke-width="4.92883"/>
<circle cx="56.0654" cy="39.6281" r="21.8101" fill="white" stroke="#131932" stroke-width="4.92883"/>
<path d="M153.96 62.8051C149.296 62.8051 145.201 61.8381 141.675 59.9043C138.148 57.9136 135.39 55.212 133.399 51.7993C131.408 48.3298 130.413 44.3769 130.413 39.9404C130.413 35.504 131.351 31.5795 133.228 28.1669C135.162 24.7542 137.779 22.081 141.077 20.1472C144.433 18.1565 148.187 17.1611 152.339 17.1611C156.548 17.1611 160.273 18.128 163.515 20.0619C166.814 21.9388 169.402 24.612 171.279 28.0815C173.156 31.4942 174.095 35.4471 174.095 39.9404C174.095 40.2248 174.066 40.5376 174.009 40.8789C174.009 41.1633 174.009 41.4761 174.009 41.8174H135.02V37.2957H170.767L168.378 39.0873C168.378 35.8453 167.668 32.973 166.246 30.4704C164.881 27.9109 163.004 25.9202 160.615 24.4983C158.226 23.0764 155.467 22.3654 152.339 22.3654C149.268 22.3654 146.509 23.0764 144.063 24.4983C141.618 25.9202 139.712 27.9109 138.347 30.4704C136.982 33.0299 136.3 35.959 136.3 39.2579V40.1964C136.3 43.609 137.039 46.6235 138.518 49.2399C140.054 51.7993 142.158 53.8185 144.831 55.2973C147.561 56.7192 150.661 57.4302 154.131 57.4302C156.861 57.4302 159.392 56.9467 161.724 55.9798C162.991 55.467 164.162 54.8102 165.237 54.0095C166.763 52.8722 168.988 52.833 170.237 54.2695L171.279 55.4679C169.289 57.8567 166.786 59.6768 163.771 60.9281C160.814 62.1794 157.543 62.8051 153.96 62.8051Z" fill="#131932"/>
<path d="M260.35 64.3879C255.623 64.3879 251.414 63.379 247.724 61.3611C244.034 59.2856 241.123 56.4606 238.989 52.886C236.856 49.3115 235.79 45.2469 235.79 40.6923C235.79 36.08 236.856 32.0154 238.989 28.4986C241.123 24.924 244.034 22.1278 247.724 20.1099C251.414 18.0921 255.623 17.0831 260.35 17.0831C265.135 17.0831 269.373 18.0921 273.063 20.1099C276.81 22.1278 279.722 24.8952 281.797 28.4121C283.93 31.9289 284.997 36.0224 284.997 40.6923C284.997 45.2469 283.93 49.3115 281.797 52.886C279.722 56.4606 276.81 59.2856 273.063 61.3611C269.373 63.379 265.135 64.3879 260.35 64.3879ZM260.35 55.1345C263.002 55.1345 265.366 54.558 267.442 53.4049C269.517 52.2519 271.131 50.5799 272.284 48.3891C273.495 46.1982 274.101 43.6326 274.101 40.6923C274.101 37.6943 273.495 35.1287 272.284 32.9955C271.131 30.8047 269.517 29.1327 267.442 27.9797C265.366 26.8266 263.031 26.2501 260.437 26.2501C257.785 26.2501 255.421 26.8266 253.345 27.9797C251.327 29.1327 249.713 30.8047 248.502 32.9955C247.292 35.1287 246.686 37.6943 246.686 40.6923C246.686 43.6326 247.292 46.1982 248.502 48.3891C249.713 50.5799 251.327 52.2519 253.345 53.4049C255.421 54.558 257.756 55.1345 260.35 55.1345Z" fill="#131932"/>
<path d="M126.262 62.3784C126.262 62.3176 126.263 62.2568 126.263 62.1959C126.263 57.7074 127.102 33.427 123.554 27.4124C121.8 24.0034 119.35 21.333 116.203 19.4013C113.108 17.4695 109.548 16.5037 105.524 16.5037C101.552 16.5037 98.0183 17.4695 94.9231 19.4013C91.8278 21.333 89.3774 24.0034 87.5718 27.4124C83.1271 35.8046 84.8635 57.7074 84.8635 62.1959C84.8635 62.2568 84.8636 62.3176 84.864 62.3784H90.4356C90.4352 62.3177 90.4349 62.2568 90.4349 62.1959C90.4349 58.6733 89.4787 34.6857 92.4469 30.0543C93.7881 27.4408 95.5937 25.4238 97.8636 24.0034C100.133 22.5262 102.713 21.7876 105.602 21.7876C108.491 21.7876 111.07 22.5262 113.34 24.0034C115.61 25.4238 117.65 27.3276 118.679 30.0543C120.691 35.385 120.691 58.6733 120.691 62.1959C120.691 62.2568 120.691 62.3177 120.691 62.3784H126.262Z" fill="#131932"/>
<path d="M207.686 63.9015C203.818 63.9015 200.377 63.0483 197.363 61.342C194.348 59.6357 191.96 57.0762 190.196 53.6636C188.49 50.1941 187.637 45.8146 187.637 40.525C187.637 35.1785 188.519 30.799 190.282 27.3864C192.102 23.9737 194.519 21.4427 197.534 19.7933C200.605 18.0869 203.989 17.2338 207.686 17.2338C212.179 17.2338 216.132 18.2007 219.545 20.1345C223.015 22.0683 225.745 24.77 227.735 28.2395C229.783 31.709 230.807 35.8042 230.807 40.525C230.807 45.2458 229.783 49.3409 227.735 52.8105C225.745 56.28 223.015 59.0101 219.545 61.0008C216.132 62.9346 212.179 63.9015 207.686 63.9015ZM182.433 41.7656V0H186.576C190.177 0 193.097 2.91977 193.097 6.52148V28.3248L192.244 40.4397L192.585 52.5545L207.686 63.9015C191.521 64.1435 182.433 53.6636 182.433 41.7656ZM206.492 54.7727C209.051 54.7727 211.326 54.2039 213.317 53.0664C215.365 51.9289 216.986 50.2794 218.18 48.1181C219.374 45.9568 219.972 43.4257 219.972 40.525C219.972 37.5674 219.374 35.0363 218.18 32.9319C216.986 30.7706 215.365 29.1211 213.317 27.9836C211.326 26.846 209.051 26.2773 206.492 26.2773C203.932 26.2773 201.629 26.846 199.581 27.9836C197.534 29.1211 195.913 30.7706 194.718 32.9319C193.524 35.0363 192.927 37.5674 192.927 40.525C192.927 43.4257 193.524 45.9568 194.718 48.1181C195.913 50.2794 197.534 51.9289 199.581 53.0664C201.629 54.2039 203.932 54.7727 206.492 54.7727Z" fill="#131932"/>
<path d="M281.735 61.2232L301.784 35.1165L301.614 40.8327L282.503 15.6646H290.101C292.783 15.6646 295.307 16.9294 296.913 19.0774L307.756 33.5809H303.235L316.715 15.6646H328.232L308.951 40.8327L309.036 35.1165L329 61.2232H316.97L302.893 42.1978L307.33 42.795L295.72 58.2743C294.328 60.1307 292.143 61.2232 289.823 61.2232H281.735Z" fill="#131932"/>
</svg>
